<?xml version="1.0" encoding="UTF-8" standalone="no"?>
<!-- Created with Inkscape (http://www.inkscape.org/) -->

<svg
    xmlns:dc="http://purl.org/dc/elements/1.1/"
    xmlns:cc="http://creativecommons.org/ns#"
    xmlns:rdf="http://www.w3.org/1999/02/22-rdf-syntax-ns#"
    xmlns="http://www.w3.org/2000/svg"
    xmlns:sodipodi="http://sodipodi.sourceforge.net/DTD/sodipodi-0.dtd"
    xmlns:inkscape="http://www.inkscape.org/namespaces/inkscape"
    width="1024"
    height="500"
    viewBox="0 0 1024 500.00001"
    id="svg2"
    version="1.1"
    inkscape:version="0.91 r13725"
    sodipodi:docname="old_time_rag_brand_logo.svg"
    inkscape:export-filename="/home/mary/Desktop/old-time-rag-feature-graphic.png"
    inkscape:export-xdpi="90"
    inkscape:export-ydpi="90">
  <defs
     id="defs4" />
  <sodipodi:namedview
     id="base"
     pagecolor="#ffffff"
     bordercolor="#666666"
     borderopacity="1.0"
     inkscape:pageopacity="0.0"
     inkscape:pageshadow="2"
     inkscape:zoom="0.98994949"
     inkscape:cx="455.70533"
     inkscape:cy="234.94386"
     inkscape:document-units="px"
     inkscape:current-layer="layer1-2"
     showgrid="false"
     fit-margin-top="0"
     fit-margin-left="0"
     fit-margin-right="0"
     fit-margin-bottom="0"
     inkscape:snap-text-baseline="true"
     inkscape:window-width="1920"
     inkscape:window-height="1056"
     inkscape:window-x="0"
     inkscape:window-y="24"
     inkscape:window-maximized="1"
     units="px" />
  <metadata
     id="metadata7">
    <rdf:RDF>
      <cc:Work
         rdf:about="">
        <dc:format>image/svg+xml</dc:format>
        <dc:type
           rdf:resource="http://purl.org/dc/dcmitype/StillImage" />
        <dc:title></dc:title>
      </cc:Work>
    </rdf:RDF>
  </metadata>
  <g
     inkscape:groupmode="layer"
     id="layer2"
     inkscape:label="background"
     transform="translate(-387.96038,44.857433)">
    <rect
       style="fill:#f5f5f5;fill-opacity:1;stroke:#000000;stroke-width:0.08187152;stroke-miterlimit:4;stroke-dasharray:none;stroke-opacity:1"
       id="rect4146"
       width="1023.9182"
       height="499.91812"
       x="388.00128"
       y="-44.816494" />
  </g>
  <g
     inkscape:label="text"
     inkscape:groupmode="layer"
     id="layer1"
     transform="translate(-387.96038,-263.41029)">
    <text
       xml:space="preserve"
       style="font-style:normal;font-weight:normal;font-size:40px;line-height:125%;font-family:sans-serif;letter-spacing:0px;word-spacing:0px;fill:#000000;fill-opacity:1;stroke:none;stroke-width:1px;stroke-linecap:butt;stroke-linejoin:miter;stroke-opacity:1"
       x="898.97162"
       y="719.30579"
       id="text4150"
       sodipodi:linespacing="125%"><tspan
         sodipodi:role="line"
         id="tspan4152"
         x="898.97162"
         y="719.30579"
         style="font-style:normal;font-variant:normal;font-weight:normal;font-stretch:normal;font-size:90px;font-family:Merriweather;-inkscape-font-specification:Merriweather;text-align:center;text-anchor:middle">Old Time Rag</tspan></text>
  </g>
  <g
     inkscape:groupmode="layer"
     id="layer3"
     inkscape:label="logo"
     transform="translate(-387.96038,44.857433)">
    <g
       id="layer1-2"
       transform="matrix(4.1738391,0,0,6.0064268,-662.24795,-2396.7873)">
      <path
         style="display:inline;fill:#000000;fill-opacity:1;fill-rule:nonzero;stroke:none;enable-background:new"
         id="path10158"
         d="m 338.28566,398.29078 0,45 c 0,3.324 2.676,6 6,6 l 60.0001,0 c 3.324,0 6,-2.676 6,-6 l 0,-34.5 -6,0 0,-10.5 -6,0 -60.0001,0 z m 4.5,4.5 57.0001,0 0,36 c 0,3.324 1.338,6 3,6 l -57.0469,0 c -1.6255,0 -2.9532,-1.3275 -2.9532,-2.953 l 0,-39.047 z m 6,7.5 0,3 45,0 0,-3 -45,0 z m 0,7.5 0,18 13.5,0 0,-18 -13.5,0 z m 18,0 0,3 27,0 0,-3 -27,0 z m 0,7.5 0,3 27,0 0,-3 -27,0 z m 0,7.5 0,3 27,0 0,-3 -27,0 z"
         inkscape:connector-curvature="0" />
    </g>
  </g>
</svg>
