<?xml version="1.0" encoding="UTF-8" standalone="no"?>
<svg
   xmlns:dc="http://purl.org/dc/elements/1.1/"
   xmlns:cc="http://creativecommons.org/ns#"
   xmlns:rdf="http://www.w3.org/1999/02/22-rdf-syntax-ns#"
   xmlns:svg="http://www.w3.org/2000/svg"
   xmlns="http://www.w3.org/2000/svg"
   version="1.1"
   id="svg2"
   viewBox="0 0 1024 500.00001"
   height="500"
   width="1024">
  <defs
     id="defs4" />
  <metadata
     id="metadata7">
    <rdf:RDF>
      <cc:Work
         rdf:about="">
        <dc:format>image/svg+xml</dc:format>
        <dc:type
           rdf:resource="http://purl.org/dc/dcmitype/StillImage" />
        <dc:title></dc:title>
      </cc:Work>
    </rdf:RDF>
  </metadata>
  <g
     transform="translate(-387.96038,44.857433)"
     id="layer2">
    <rect
       y="-44.816494"
       x="388.00128"
       height="499.91812"
       width="1023.9182"
       id="rect4146"
       style="fill:#f5f5f5;fill-opacity:1;stroke:#000000;stroke-width:0.08187152;stroke-miterlimit:4;stroke-dasharray:none;stroke-opacity:1" />
  </g>
  <g
     transform="translate(-387.96038,-263.41029)"
     id="layer1">
    <text
       id="text4150"
       y="719.30579"
       x="898.97162"
       style="font-style:normal;font-weight:normal;font-size:40px;line-height:125%;font-family:sans-serif;letter-spacing:0px;word-spacing:0px;fill:#000000;fill-opacity:1;stroke:none;stroke-width:1px;stroke-linecap:butt;stroke-linejoin:miter;stroke-opacity:1"
       xml:space="preserve"><tspan
         style="font-style:normal;font-variant:normal;font-weight:normal;font-stretch:normal;font-size:90px;font-family:Merriweather;-inkscape-font-specification:Merriweather;text-align:center;text-anchor:middle"
         y="719.30579"
         x="898.97162"
         id="tspan4152">Old Time Rag</tspan></text>
  </g>
  <g
     transform="translate(-387.96038,44.857433)"
     id="layer3">
    <g
       transform="matrix(4.1738391,0,0,6.0064268,-662.24795,-2396.7873)"
       id="layer1-2">
      <path
         d="m 338.28566,398.29078 0,45 c 0,3.324 2.676,6 6,6 l 60.0001,0 c 3.324,0 6,-2.676 6,-6 l 0,-34.5 -6,0 0,-10.5 -6,0 -60.0001,0 z m 4.5,4.5 57.0001,0 0,36 c 0,3.324 1.338,6 3,6 l -57.0469,0 c -1.6255,0 -2.9532,-1.3275 -2.9532,-2.953 l 0,-39.047 z m 6,7.5 0,3 45,0 0,-3 -45,0 z m 0,7.5 0,18 13.5,0 0,-18 -13.5,0 z m 18,0 0,3 27,0 0,-3 -27,0 z m 0,7.5 0,3 27,0 0,-3 -27,0 z m 0,7.5 0,3 27,0 0,-3 -27,0 z"
         id="path10158"
         style="display:inline;fill:#000000;fill-opacity:1;fill-rule:nonzero;stroke:none;enable-background:new" />
    </g>
  </g>
</svg>
